<?xml version="1.0" encoding="utf-8"?>
<!-- Generator: Adobe Illustrator 15.0.0, SVG Export Plug-In . SVG Version: 6.00 Build 0)  -->
<!DOCTYPE svg PUBLIC "-//W3C//DTD SVG 1.1//EN" "http://www.w3.org/Graphics/SVG/1.1/DTD/svg11.dtd">
<svg version="1.1" id="Layer_1" xmlns="http://www.w3.org/2000/svg" xmlns:xlink="http://www.w3.org/1999/xlink" x="0px" y="0px"
	 width="386.981px" height="391.48px" viewBox="0 0 386.981 391.48" enable-background="new 0 0 386.981 391.48"
	 xml:space="preserve">
<g>
	<path fill="#4D4D4D" d="M46.148,179.05l5.286,5.288c6.367,6.365,6.821,13.187,0.681,19.328c-6.137,6.138-12.959,5.683-19.325-0.684
		l-20.693-20.691c-6.366-6.367-6.821-13.189-0.682-19.327c6.139-6.14,12.961-5.685,19.328,0.681l3.865,3.867l-5.911,5.911
		l-4.264-4.263c-2.842-2.842-5.174-2.671-7.163-0.682c-1.99,1.989-2.16,4.321,0.682,7.162l21.487,21.487
		c2.842,2.843,5.116,2.614,7.105,0.627c1.99-1.991,2.218-4.266-0.625-7.108l-5.684-5.685L46.148,179.05z"/>
	<path fill="#4D4D4D" d="M32.617,161.77c-6.366-6.366-6.65-13.358-0.511-19.497c6.14-6.14,13.131-5.855,19.498,0.511l20.691,20.692
		c6.367,6.367,6.652,13.358,0.513,19.497c-6.141,6.14-13.133,5.855-19.498-0.511L32.617,161.77z M59.961,176.607
		c2.842,2.843,5.171,2.672,7.162,0.682c1.988-1.989,2.16-4.32-0.683-7.163l-21.487-21.487c-2.843-2.842-5.174-2.671-7.162-0.682
		c-1.99,1.99-2.161,4.32,0.682,7.162L59.961,176.607z"/>
	<polygon fill="#4D4D4D" points="61.212,136.018 90.032,164.839 84.405,170.467 44.612,130.675 52.458,122.83 82.699,140.225 
		58.881,116.406 64.452,110.836 104.245,150.629 97.82,157.052 	"/>
	<path fill="#4D4D4D" d="M67.521,107.767l9.889-9.891c6.253-6.252,12.792-5.854,19.158,0.512l20.123,20.123
		c6.367,6.367,6.765,12.905,0.512,19.157l-9.891,9.891L67.521,107.767z M79.458,107.199l28.421,28.422l3.525-3.524
		c1.99-1.99,2.16-4.207-0.681-7.049l-20.691-20.692c-2.843-2.843-5.06-2.672-7.05-0.681L79.458,107.199z"/>
	
		<rect x="107.895" y="74.628" transform="matrix(-0.707 0.7072 -0.7072 -0.707 264.3993 95.9883)" fill="#4D4D4D" width="8.842" height="56.275"/>
	<polygon fill="#4D4D4D" points="96.851,78.436 116.179,59.108 121.864,64.792 115.326,71.331 149.433,105.438 143.181,111.69 
		109.075,77.583 102.536,84.121 	"/>
	
		<rect x="136.088" y="46.433" transform="matrix(-0.7072 0.7071 -0.7071 -0.7072 292.5975 27.9572)" fill="#4D4D4D" width="8.842" height="56.275"/>
	<path fill="#4D4D4D" d="M135.904,58.484c-6.367-6.367-6.65-13.358-0.512-19.497c6.141-6.14,13.132-5.855,19.499,0.511
		l20.692,20.692c6.366,6.367,6.65,13.359,0.511,19.498c-6.139,6.139-13.131,5.855-19.498-0.512L135.904,58.484z M163.247,73.321
		c2.842,2.842,5.173,2.672,7.162,0.682c1.988-1.989,2.162-4.321-0.681-7.163L148.24,45.353c-2.842-2.843-5.174-2.671-7.163-0.682
		c-1.989,1.99-2.159,4.32,0.683,7.163L163.247,73.321z"/>
	<polygon fill="#4D4D4D" points="164.498,32.733 193.317,61.554 187.69,67.18 147.899,27.389 155.745,19.545 185.985,36.939 
		162.167,13.121 167.737,7.55 207.529,47.342 201.105,53.766 	"/>
	<polygon fill="#0092BF" points="214.581,53.927 49.277,219.23 214.581,384.534 214.899,384.216 214.899,54.245 	"/>
	<polygon fill="#1E9FC7" points="214.899,54.245 214.899,384.216 379.883,219.23 	"/>
	<rect x="142.335" y="154.004" fill="#E6E6E6" width="20.95" height="133.316"/>
	<rect x="214.535" y="268.272" fill="#FFFFFF" width="12.548" height="19.048"/>
	<polygon fill="#E6E6E6" points="214.535,202.807 214.535,154.005 167.664,154.005 167.664,173.05 205.562,173.05 165.76,268.654 
		165.76,287.32 214.535,287.32 214.535,268.272 187.28,268.272 	"/>
	<polygon fill="#FFFFFF" points="227.083,172.667 227.083,154.004 214.535,154.004 214.535,202.807 	"/>
	<path fill="#FFFFFF" d="M273.743,287.32c-1.143-3.43-1.903-5.525-1.903-16.379v-20.952c0-12.379-4.192-16.95-13.713-16.95h-7.237
		v54.281h-20.95V154.004h31.616c21.711,0,31.043,10.094,31.043,30.663v10.475c0,13.712-4.381,22.664-13.713,27.042
		c10.475,4.381,13.905,14.475,13.905,28.378v20.568c0,6.474,0.188,11.236,2.283,16.189H273.743z M250.889,173.049v40.946h8.188
		c7.809,0,12.569-3.427,12.569-14.094v-13.139c0-9.523-3.235-13.713-10.664-13.713H250.889z"/>
</g>
</svg>
